<?xml version="1.0" standalone="no"?>
<!DOCTYPE svg PUBLIC "-//W3C//DTD SVG 20010904//EN"
 "http://www.w3.org/TR/2001/REC-SVG-20010904/DTD/svg10.dtd">
<svg version="1.0" xmlns="http://www.w3.org/2000/svg"
 width="251.000000pt" height="240.000000pt" viewBox="0 0 251.000000 240.000000"
 preserveAspectRatio="xMidYMid meet">
<metadata>
Created by potrace 1.16, written by Peter Selinger 2001-2019
</metadata>
<g transform="translate(0.000000,240.000000) scale(0.100000,-0.100000)"
fill="#000000" stroke="none">
<path d="M863 1812 c-216 -125 -397 -232 -404 -239 -6 -6 -9 -18 -6 -26 3 -8
181 -115 396 -237 l391 -222 0 -195 c0 -107 -4 -193 -8 -191 -5 2 -178 101
-385 222 -314 181 -380 216 -392 206 -13 -11 -15 -50 -13 -258 l3 -245 404
-228 c222 -126 411 -229 420 -229 15 0 771 431 805 460 14 11 16 65 14 479
l-3 466 -400 232 c-220 127 -407 232 -415 232 -8 0 -191 -102 -407 -227z m791
-59 l376 -216 -2 -435 -3 -435 -378 -218 -377 -218 -268 151 c-147 83 -320
181 -384 217 l-118 66 0 193 c0 105 2 192 4 192 1 0 174 -98 382 -219 l379
-219 45 24 c25 13 119 68 210 122 l165 98 3 246 2 246 -210 121 -211 122 -192
-113 c-105 -62 -196 -112 -202 -110 -5 2 -81 44 -168 94 -94 53 -155 94 -150
99 16 16 697 408 710 408 6 1 180 -96 387 -216z m-220 -328 c86 -49 156 -92
156 -95 -1 -3 -73 -46 -161 -97 l-161 -92 -159 91 c-104 59 -157 94 -150 101
15 15 305 186 313 184 3 -1 76 -42 162 -92z m196 -343 l0 -187 -142 -85 c-79
-46 -153 -90 -165 -98 l-23 -14 0 195 0 195 153 90 c83 50 158 91 165 91 9 1
12 -43 12 -187z"/>
</g>
</svg>
